<?xml version="1.0" encoding="UTF-8" standalone="no"?>
<!DOCTYPE svg PUBLIC "-//W3C//DTD SVG 1.1//EN" "http://www.w3.org/Graphics/SVG/1.1/DTD/svg11.dtd">
<svg width="100%" height="100%" viewBox="0 0 2079 2079" version="1.1" xmlns="http://www.w3.org/2000/svg" xmlns:xlink="http://www.w3.org/1999/xlink" xml:space="preserve" xmlns:serif="http://www.serif.com/" style="fill-rule:evenodd;clip-rule:evenodd;stroke-linecap:round;stroke-linejoin:round;stroke-miterlimit:10;">
    <g transform="matrix(4.16667,0,0,4.16667,0,0)">
        <g id="レイヤー-1" serif:id="レイヤー 1">
            <g transform="matrix(1,0,0,1,498.898,197.046)">
                <path d="M0,52.412C0,-85.356 -111.682,-197.037 -249.449,-197.037C-387.215,-197.037 -498.898,-85.356 -498.898,52.412C-498.898,132.52 -461.135,203.809 -402.441,249.449L-77.082,232.729C-29.584,187.313 0,123.317 0,52.412" style="fill:rgb(45,113,157);"/>
            </g>
            <g transform="matrix(1,0,0,1,111.505,208.373)">
                <path d="M0,167.055L-41.881,190.283L4.931,237.095L310.311,221.402C357.809,175.985 387.393,111.99 387.393,41.085C387.393,29.215 386.545,17.546 384.942,6.119L308.783,-70.04L0,167.055Z" style="fill:rgb(18,88,123);"/>
            </g>
            <g transform="matrix(1,0,0,1,67.4282,381.721)">
                <path d="M0,9.841C0.762,25.548 16.452,18.28 23.559,13.37C30.305,8.709 36.863,11.414 37.455,2.213C37.843,-3.833 33.955,-8.71 33.612,-14.782C23.411,-15.707 12.315,-13.276 3.952,-7.2C-0.356,-4.072 -8.433,5.921 0,9.841" style="fill:rgb(246,208,162);"/>
            </g>
            <g transform="matrix(0.871568,-0.490274,-0.490274,-0.871568,68.6922,392.87)">
                <path d="M-0.461,1.759C1.946,1.379 4.351,0.72 6.715,1.759" style="fill:none;fill-rule:nonzero;stroke:rgb(18,88,123);stroke-width:3px;"/>
            </g>
            <g transform="matrix(1,0,0,1,448.181,379.718)">
                <path d="M0,9.841C-0.761,25.548 -16.452,18.28 -23.559,13.37C-30.305,8.709 -32.278,12.583 -32.87,3.383C-33.257,-2.664 -33.954,-8.71 -33.612,-14.782C-23.41,-15.707 -12.315,-13.276 -3.952,-7.201C0.354,-4.072 8.433,5.921 0,9.841" style="fill:rgb(246,208,162);"/>
            </g>
            <g transform="matrix(-0.871568,-0.490274,-0.490274,0.871568,443.191,384.734)">
                <path d="M-6.715,1.759C-4.308,2.139 -1.903,2.798 0.461,1.759" style="fill:none;fill-rule:nonzero;stroke:rgb(18,88,123);stroke-width:3px;"/>
            </g>
            <g>
                <clipPath id="_clip1">
                    <path d="M0,249.458C0,387.224 111.682,498.906 249.449,498.906C387.215,498.906 498.897,387.224 498.897,249.458C498.897,111.69 387.215,0.009 249.449,0.009C111.682,0.009 0,111.69 0,249.458Z" clip-rule="nonzero"/>
                </clipPath>
                <g clip-path="url(#_clip1)">
                    <g transform="matrix(1,0,0,1,251.784,627.323)">
                        <path d="M0,-522.747C60.195,-522.747 116.623,-514.139 146.038,-456.306C172.441,-391.484 163.052,-321.584 167.078,-253.077C170.536,-194.251 178.204,-126.291 150.914,-71.778C122.205,-14.427 50.468,0 -8.634,-2.112C-55.057,-3.774 -111.137,-18.918 -137.339,-61.333C-168.078,-111.092 -153.525,-185.08 -151.292,-240.447C-148.646,-306.032 -169.057,-371.816 -147.511,-435.994C-125.158,-502.569 -64.877,-517.614 0,-522.747" style="fill:rgb(40,184,199);"/>
                    </g>
                    <g opacity="0.57">
                        <g transform="matrix(0,-1,-1,0,255.573,339.428)">
                            <path d="M-137.973,-137.973C-230.229,-137.973 -305.017,-76.2 -305.017,0C-305.017,76.2 -230.229,137.973 -137.973,137.973C-45.716,137.973 29.072,76.2 29.072,0C29.072,-76.2 -45.716,-137.973 -137.973,-137.973" style="fill:rgb(201,230,226);"/>
                        </g>
                    </g>
                </g>
            </g>
            <g transform="matrix(1,0,0,1,103.689,110.625)">
                <path d="M0,93.398C-60.126,76.49 -15.417,0 32.866,31.461L0,93.398Z" style="fill:rgb(40,184,199);"/>
            </g>
            <g transform="matrix(1,0,0,1,370.829,163.886)">
                <path d="M0,-27.539C47.592,-60.968 90.599,14.453 35.288,33.429L0,-27.539Z" style="fill:rgb(40,184,199);"/>
            </g>
            <g transform="matrix(1,0,0,1,106.197,155.334)">
                <path d="M0,27.563C-7.933,23.368 -13.752,17.669 -8.9,8.494C-4.407,0 3.938,0.922 11.871,5.119L0,27.563Z" style="fill:white;"/>
            </g>
            <g transform="matrix(1,0,0,1,393.586,147.356)">
                <path d="M0,27.563C7.933,23.368 13.752,17.669 8.9,8.494C4.407,0 -3.938,0.922 -11.872,5.119L0,27.563Z" style="fill:white;"/>
            </g>
            <g transform="matrix(1,0,0,1,262.411,174.243)">
                <path d="M0,11.141C10.807,73.966 113.501,57.355 98.75,-6.008C85.523,-62.825 -3.592,-47.098 0,11.141" style="fill:white;"/>
            </g>
            <g transform="matrix(1,0,0,1,139.692,170.359)">
                <path d="M0,25.185C14.007,79.881 101.576,65.877 98.275,11.012C94.321,-54.696 -13.392,-42.017 0,25.185" style="fill:white;"/>
            </g>
            <g transform="matrix(0,-1,-1,0,163.846,171.837)">
                <path d="M-14.787,-14.787C-23.633,-14.787 -30.804,-8.167 -30.804,-0C-30.804,8.168 -23.633,14.787 -14.787,14.787C-5.941,14.787 1.23,8.168 1.23,-0C1.23,-8.167 -5.941,-14.787 -14.787,-14.787" style="fill:rgb(57,57,59);"/>
            </g>
            <g transform="matrix(0,-1,-1,0,170.571,186.753)">
                <path d="M-3.486,-3.487C-5.734,-3.487 -7.557,-1.926 -7.557,-0.001C-7.557,1.924 -5.734,3.486 -3.486,3.486C-1.238,3.486 0.584,1.924 0.584,-0.001C0.584,-1.926 -1.238,-3.487 -3.486,-3.487" style="fill:white;"/>
            </g>
            <g transform="matrix(0,-1,-1,0,287.741,168.095)">
                <path d="M-14.541,-14.541C-23.387,-14.541 -30.558,-8.031 -30.558,0C-30.558,8.031 -23.387,14.541 -14.541,14.541C-5.695,14.541 1.476,8.031 1.476,0C1.476,-8.031 -5.695,-14.541 -14.541,-14.541" style="fill:rgb(57,57,59);"/>
            </g>
            <g transform="matrix(0,-1,-1,0,294.355,182.822)">
                <path d="M-3.428,-3.429C-5.676,-3.429 -7.499,-1.893 -7.499,0C-7.499,1.893 -5.676,3.428 -3.428,3.428C-1.18,3.428 0.642,1.893 0.642,0C0.642,-1.893 -1.18,-3.429 -3.428,-3.429" style="fill:white;"/>
            </g>
            <g opacity="0.58">
                <g transform="matrix(1,0,0,1,277.876,287.628)">
                    <path d="M0,-31.516C0.046,-21.609 1.864,-10.488 0.312,0.051C-1.781,4.83 -5.889,5.336 -9.428,7.268C-14.324,6.34 -18.441,2.457 -20.404,-3.075C-21.659,-15.105 -19.936,-26.75 -19.617,-38.784L0,-31.516Z" style="fill:rgb(17,96,118);"/>
                </g>
            </g>
            <g opacity="0.58">
                <g transform="matrix(1,0,0,1,235.451,305.125)">
                    <path d="M0,-50.092C-6.477,-31.128 3.613,6.793 21.187,-21.177C19.931,-33.205 21.655,-44.852 21.973,-56.885L0,-50.092Z" style="fill:rgb(17,96,118);"/>
                </g>
            </g>
            <g transform="matrix(1,0,0,1,275.874,286.877)">
                <path d="M0,-26.088C0.046,-17.888 1.864,-8.681 0.312,0.042C-1.781,4 -5.889,4.417 -9.428,6.016C-14.324,5.249 -18.441,2.034 -20.404,-2.545C-21.66,-12.502 -19.936,-22.143 -19.618,-32.104L0,-26.088Z" style="fill:white;"/>
            </g>
            <g transform="matrix(1,0,0,1,233.449,301.36)">
                <path d="M0,-41.464C-6.477,-25.766 3.613,5.624 21.187,-17.529C19.931,-27.486 21.655,-37.126 21.973,-47.088L0,-41.464Z" style="fill:white;"/>
            </g>
            <g transform="matrix(1,0,0,1,234.664,269.876)">
                <path d="M0,-40.211C-12.072,-39.182 -21.942,-24.828 -15.664,-13.472C-7.352,1.57 11.202,-14.802 22.758,-13.269C36.058,-12.996 46.955,0.795 57.636,-10.776C69.517,-23.645 52.522,-36.178 39.239,-41.781L0,-40.211Z" style="fill:rgb(246,208,162);"/>
            </g>
            <g transform="matrix(1,0,0,1,233.145,221.007)">
                <path d="M0,8.029C-0.894,-12.885 38.981,-15.5 43.69,2.008C48.387,19.472 1.963,23.529 0,8.029" style="fill:rgb(57,57,59);"/>
            </g>
            <g opacity="0.12">
                <g transform="matrix(1,0,0,1,372.874,128.138)">
                    <path d="M0,-73.595C-0.062,-75.457 -1.049,-77.162 -2.621,-78.161C-49.235,-107.785 -94.423,-110.408 -110.062,-110.323L-135.821,-110.325C-152.166,-110.312 -196.618,-107.287 -242.449,-78.161C-244.021,-77.162 -245.007,-75.457 -245.07,-73.595L-248.53,29.792C-248.67,33.957 -244.385,36.813 -240.591,35.088C-228.211,29.46 -203.721,19.372 -179.863,15.605L-168.614,13.884C-168.386,13.849 -161.205,12.798 -160.974,12.793C-159.706,12.765 -152.572,11.09 -148.557,7.46L-133.331,-5.521C-132.392,-6.505 -127.327,-10.357 -122.596,-10.357L-122.474,-10.357C-117.743,-10.357 -112.677,-6.505 -111.738,-5.521L-96.513,7.46C-92.497,11.09 -85.364,12.765 -84.096,12.793C-83.865,12.798 -76.684,13.849 -76.455,13.884L-65.206,15.605C-41.349,19.372 -16.859,29.46 -4.478,35.088C-0.684,36.813 3.6,33.957 3.46,29.792L0,-73.595Z" style="fill:rgb(2,4,6);fill-rule:nonzero;"/>
                </g>
            </g>
            <g transform="matrix(1,0,0,1,261.922,159.88)">
                <path d="M0,-147.051C15.639,-147.136 60.827,-144.513 107.441,-114.889C109.013,-113.89 110,-112.185 110.062,-110.323L113.522,-6.936C113.662,-2.771 109.378,0.085 105.584,-1.64C93.203,-7.268 68.713,-17.356 44.856,-21.123L33.607,-22.844C33.378,-22.879 26.197,-23.93 25.966,-23.935C24.698,-23.963 17.565,-25.638 13.549,-29.268L-1.677,-42.249C-2.616,-43.233 -7.681,-47.085 -12.412,-47.085L-12.534,-47.085C-17.265,-47.085 -22.33,-43.233 -23.269,-42.249L-38.495,-29.268C-42.511,-25.638 -49.644,-23.963 -50.912,-23.935C-51.143,-23.93 -58.324,-22.879 -58.552,-22.844L-69.801,-21.123C-93.659,-17.356 -118.149,-7.268 -130.529,-1.64C-134.323,0.085 -138.608,-2.771 -138.468,-6.936L-135.008,-110.323C-134.945,-112.185 -133.959,-113.89 -132.387,-114.889C-86.556,-144.015 -42.105,-147.04 -25.759,-147.053L0,-147.051Z" style="fill:rgb(236,101,28);fill-rule:nonzero;"/>
            </g>
            <g transform="matrix(-0.586112,-0.81023,-0.81023,0.586112,130.768,96.5024)">
                <path d="M-2.118,-4.147C-3.218,-4.147 -4.11,-2.976 -4.11,-1.532C-4.11,-0.089 -3.218,1.083 -2.118,1.083C-1.018,1.082 -0.126,-0.088 -0.126,-1.532C-0.126,-2.976 -1.018,-4.146 -2.118,-4.147" style="fill:white;fill-rule:nonzero;"/>
            </g>
            <g transform="matrix(1,0,0,1,211.212,76.8572)">
                <path d="M0,-30.985C0,-30.985 -1.024,-32.532 -4.029,-33.021C-4.029,-33.021 -8.11,-33.822 -11.465,-32.91C-13.282,-32.416 -16.835,-30.228 -18.322,-28.435C-19.848,-26.594 -21.468,-24.429 -22.354,-23.627C-23.239,-22.825 -28.416,-16.634 -37.175,-13.874C-37.175,-13.874 -43.002,-12.296 -46.132,-11.557C-49.263,-10.818 -51.459,-9.982 -52.381,-9.281C-53.184,-8.671 -53.867,-7.929 -54.429,-6.588C-54.991,-5.247 -54.987,-3.538 -54.521,-2.334C-54.054,-1.131 -52.213,1.864 -48.112,2.35C-44.01,2.837 -39.305,1.918 -37.77,1.308C-35.076,0.238 -32.219,-1.653 -29.049,-4.717C-29.049,-4.717 -23.137,-10.265 -20.93,-13.629C-18.723,-16.994 -17.327,-19.151 -15.06,-21.509C-12.792,-23.867 -11.249,-25.978 -8.097,-26.906C-8.097,-26.906 -6.382,-27.333 -4.932,-27.542C-3.483,-27.751 -2.389,-27.999 -1.914,-28.194C-1.386,-28.41 1.025,-29.337 0,-30.985" style="fill:rgb(4,3,3);fill-rule:nonzero;"/>
            </g>
            <g transform="matrix(1,0,0,1,201.33,91.8743)">
                <path d="M0,-12.416C5.745,-16.281 11.932,-18.493 17.649,-19.075C18.421,-18.527 19.091,-17.859 19.634,-17.07C23.176,-11.924 20.006,-3.595 12.556,1.532C5.105,6.659 -3.806,6.643 -7.347,1.497C-8.554,-0.257 -8.98,-2.38 -8.725,-4.619C-6.342,-7.463 -3.41,-10.121 0,-12.416" style="fill:white;fill-rule:nonzero;"/>
            </g>
            <g transform="matrix(1,0,0,1,201.33,83.1413)">
                <path d="M0,-3.683C4.039,-6.4 8.297,-8.298 12.457,-9.391C13.602,-8.336 14.462,-6.948 14.863,-5.324C15.951,-0.919 13.261,3.533 8.857,4.621C4.452,5.708 -0.001,3.019 -1.088,-1.386C-1.203,-1.849 -1.266,-2.313 -1.3,-2.774C-0.874,-3.082 -0.442,-3.386 0,-3.683" style="fill:rgb(4,3,3);"/>
            </g>
            <g transform="matrix(0.998371,-0.0570619,-0.0570619,-0.998371,201.191,79.7237)">
                <path d="M-0.047,0.256C-3.582,-1.841 -6.661,-4.327 -9.202,-7.03C-8.462,-2.732 -5.144,1.859 -0.047,4.953C6.499,8.927 13.877,9.159 17.955,5.897C12.213,5.642 5.91,3.787 -0.047,0.256" style="fill:rgb(205,73,25);fill-rule:nonzero;"/>
            </g>
            <g transform="matrix(-0.586112,0.81023,0.81023,0.586112,368.129,96.4988)">
                <path d="M2.118,-4.147C3.218,-4.147 4.11,-2.976 4.11,-1.532C4.11,-0.089 3.218,1.083 2.118,1.083C1.018,1.082 0.126,-0.088 0.126,-1.532C0.126,-2.976 1.018,-4.146 2.118,-4.147" style="fill:white;fill-rule:nonzero;"/>
            </g>
            <g transform="matrix(1,0,0,1,287.686,77.1058)">
                <path d="M0,-31.549C0,-31.549 1.208,-33.225 5.035,-33.532C5.035,-33.532 9.241,-33.822 12.289,-33.158C14.13,-32.757 15.293,-31.584 16.901,-29.971C18.59,-28.277 21.468,-24.993 22.354,-24.191C23.239,-23.389 28.416,-17.198 37.175,-14.438C37.175,-14.438 43.002,-12.86 46.132,-12.121C49.263,-11.382 51.309,-10.608 52.052,-9.928C52.795,-9.247 53.726,-8.512 54.288,-7.171C54.85,-5.83 54.987,-4.102 54.521,-2.898C54.054,-1.695 52.213,1.3 48.112,1.786C44.01,2.273 39.768,1.459 38.25,0.809C36.731,0.158 32.219,-2.217 29.049,-5.281C29.049,-5.281 23.137,-10.829 20.93,-14.193C18.723,-17.558 18.112,-18.884 15.844,-21.242C13.576,-23.6 11.249,-26.542 8.097,-27.47C8.097,-27.47 6.382,-27.897 4.932,-28.106C3.483,-28.315 2.389,-28.563 1.914,-28.758C1.386,-28.974 -1.025,-29.901 0,-31.549" style="fill:rgb(4,3,3);fill-rule:nonzero;"/>
            </g>
            <g transform="matrix(1,0,0,1,297.568,91.8707)">
                <path d="M0,-12.416C-5.745,-16.281 -11.932,-18.493 -17.649,-19.075C-18.421,-18.527 -19.091,-17.859 -19.634,-17.07C-23.176,-11.924 -20.006,-3.595 -12.556,1.532C-5.105,6.659 3.806,6.643 7.347,1.497C8.554,-0.257 8.98,-2.38 8.725,-4.619C6.342,-7.463 3.41,-10.121 0,-12.416" style="fill:white;fill-rule:nonzero;"/>
            </g>
            <g transform="matrix(1,0,0,1,297.568,83.1377)">
                <path d="M0,-3.683C-4.039,-6.4 -8.297,-8.298 -12.457,-9.391C-13.602,-8.336 -14.462,-6.948 -14.863,-5.324C-15.951,-0.919 -13.261,3.533 -8.857,4.621C-4.452,5.708 0.001,3.019 1.088,-1.386C1.203,-1.849 1.266,-2.313 1.3,-2.773C0.874,-3.082 0.442,-3.386 0,-3.683" style="fill:rgb(4,3,3);"/>
            </g>
            <g transform="matrix(0.998358,0.0572741,0.0572741,-0.998358,297.706,79.7246)">
                <path d="M0.047,0.257C3.583,-1.839 6.662,-4.325 9.204,-7.027C8.463,-2.729 5.144,1.861 0.047,4.954C-6.5,8.926 -13.879,9.157 -17.956,5.894C-12.214,5.641 -5.91,3.787 0.047,0.257" style="fill:rgb(205,73,25);fill-rule:nonzero;"/>
            </g>
        </g>
    </g>
</svg>
