<?xml version="1.0" encoding="UTF-8" standalone="no"?>
<!DOCTYPE svg PUBLIC "-//W3C//DTD SVG 1.1//EN" "http://www.w3.org/Graphics/SVG/1.1/DTD/svg11.dtd">
<svg width="100%" height="100%" viewBox="0 0 2079 2079" version="1.1" xmlns="http://www.w3.org/2000/svg" xmlns:xlink="http://www.w3.org/1999/xlink" xml:space="preserve" xmlns:serif="http://www.serif.com/" style="fill-rule:evenodd;clip-rule:evenodd;stroke-linejoin:round;stroke-miterlimit:2;">
    <g transform="matrix(4.16667,0,0,4.16667,0,0)">
        <g id="レイヤー-1" serif:id="レイヤー 1">
            <g transform="matrix(1,0,0,1,498.734,195.26)">
                <path d="M0,54.192C0,-83.574 -111.609,-195.257 -249.286,-195.257C-386.961,-195.257 -498.571,-83.574 -498.571,54.192C-498.571,133.267 -461.801,203.748 -404.438,249.449L-85.386,242.15C-33.059,196.423 0,129.17 0,54.192" style="fill:rgb(40,184,199);"/>
            </g>
            <g transform="matrix(312.973,-312.973,-312.973,-312.973,163.604,480.078)">
                <path d="M0.209,0.351L0.005,0.147L-0,0.115L0.467,-0.331C0.624,-0.341 0.784,-0.287 0.904,-0.167C0.943,-0.128 0.975,-0.085 1,-0.039L1,0.297L0.209,0.351Z" style="fill:url(#_Linear1);fill-rule:nonzero;"/>
            </g>
            <g opacity="0.66">
                <g transform="matrix(1,0,0,1,119.428,213.301)">
                    <path d="M0,91.622L0,219.189L8.194,230.649L294.066,224.109C346.393,178.381 379.452,111.129 379.452,36.151C379.452,11.802 375.951,-11.726 369.45,-33.972L264.465,-139.027L0,91.622Z" style="fill:rgb(19,131,148);"/>
                </g>
            </g>
            <g transform="matrix(1,0,0,1,270.423,44.0797)">
                <path d="M0,23.198C-1.91,18.803 -2.497,1.635 15.24,-3.626C32.976,-8.887 43.673,-6.23 43.673,-6.23C43.673,-6.23 70.879,-3.224 64.64,11.701C58.4,26.626 37.711,32.085 25.619,30.677C13.526,29.269 3.759,31.846 0,23.198" style="fill:rgb(251,252,231);"/>
            </g>
            <g transform="matrix(-0.149906,-0.9887,-0.9887,0.149906,300.524,35.0933)">
                <path d="M-21.472,-24.973C-29.776,-24.971 -36.508,-15.247 -36.508,-3.252C-36.508,8.741 -29.776,18.463 -21.472,18.461C-13.168,18.46 -6.436,8.735 -6.436,-3.259C-6.436,-15.253 -13.169,-24.975 -21.472,-24.973" style="fill:rgb(244,198,30);"/>
            </g>
            <g transform="matrix(-0.939,0.343918,0.343918,0.939,139.083,63.3945)">
                <rect x="-58.813" y="-10.432" width="52.237" height="47.506" style="fill:rgb(18,22,8);"/>
            </g>
            <g transform="matrix(-0.999264,0.038362,0.038362,0.999264,184.044,40.3496)">
                <rect x="-37.623" y="-0.723" width="36.725" height="47.511" style="fill:rgb(26,54,27);"/>
            </g>
            <g transform="matrix(-1,0,0,1,640.952,-483.509)">
                <rect x="235.172" y="492.895" width="179.112" height="5.121" style="fill:rgb(92,14,18);"/>
            </g>
            <g transform="matrix(-1,0,0,1,640.952,-464.457)">
                <rect x="235.172" y="483.369" width="179.112" height="5.121" style="fill:rgb(92,14,18);"/>
            </g>
            <g transform="matrix(-1,0,0,1,497.121,-417.631)">
                <rect x="250.254" y="432.157" width="5.117" height="60.719" style="fill:rgb(246,204,98);"/>
            </g>
            <g transform="matrix(-1,0,0,1,477.191,-417.631)">
                <rect x="240.289" y="432.157" width="5.117" height="60.719" style="fill:rgb(246,204,98);"/>
            </g>
            <g transform="matrix(-1,0,0,1,497.121,-417.631)">
                <rect x="250.254" y="432.157" width="5.117" height="60.719" style="fill:rgb(246,204,98);"/>
            </g>
            <g transform="matrix(-1,0,0,1,517.051,-417.631)">
                <rect x="260.219" y="432.157" width="5.117" height="60.719" style="fill:rgb(246,204,98);"/>
            </g>
            <g transform="matrix(-1,0,0,1,536.981,-417.631)">
                <rect x="270.184" y="432.157" width="5.117" height="60.719" style="fill:rgb(246,204,98);"/>
            </g>
            <g transform="matrix(1,0,0,1,115.235,45.1074)">
                <path d="M0,51.013C13.263,34.577 67.934,22.254 133.409,22.225L133.409,22.224L134.717,22.224L134.717,22.225C200.186,22.256 254.85,34.578 268.112,51.013C269.315,47.289 270.182,44.097 270.664,41.596C271.016,39.657 271.192,37.906 271.192,36.519C271.192,16.373 210.113,0.037 134.717,0.001L134.717,0L133.409,0L133.409,0.001C58.007,0.035 -3.08,16.371 -3.08,36.519C-3.08,37.906 -2.904,39.657 -2.552,41.596C-2.07,44.097 -1.202,47.289 0,51.013" style="fill:white;"/>
            </g>
            <g transform="matrix(1,0,0,1,119.685,119.206)">
                <path d="M0,-10.911C5.243,2.442 13.872,12.106 13.872,12.106C13.872,12.106 17.772,16.967 25.195,22.217C30.436,25.426 32.566,26.308 38.804,28.689C41.174,29.649 43.701,30.516 46.378,31.253C66.359,37.276 95.938,41.094 128.959,41.112L130.267,41.112C163.282,41.093 192.855,37.275 212.834,31.253C215.511,30.517 218.038,29.649 220.408,28.689C226.646,26.308 228.776,25.426 234.017,22.217C241.44,16.967 245.34,12.106 245.34,12.106C245.34,12.106 253.969,2.442 259.212,-10.911C260.972,-15.394 262.459,-19.514 263.63,-23.135L263.662,-23.234C250.4,-39.669 195.736,-51.991 130.267,-52.022L130.267,-52.023L128.959,-52.023L128.959,-52.022C63.484,-51.993 8.813,-39.67 -4.45,-23.234L0,-10.911Z" style="fill:rgb(179,30,35);"/>
            </g>
            <g opacity="0.17">
                <g transform="matrix(0,-1,-1,0,249.291,55.1334)">
                    <path d="M-88.249,-88.249C-97.602,-88.249 -105.184,-48.738 -105.184,0C-105.184,48.739 -97.602,88.249 -88.249,88.249C-78.896,88.249 -71.314,48.739 -71.314,0C-71.314,-48.738 -78.896,-88.249 -88.249,-88.249" style="fill:rgb(81,17,14);"/>
                </g>
            </g>
            <g transform="matrix(1,0,0,1,189.429,154.234)">
                <path d="M0,5.999C0,12.639 26.801,18.021 59.862,18.021C92.924,18.021 119.725,12.639 119.725,5.999L119.725,0.001C119.725,-6.639 92.924,-12.022 59.862,-12.022C26.801,-12.022 0,-6.639 0,0.001L0,5.999Z" style="fill:white;"/>
            </g>
            <g opacity="0.17">
                <g transform="matrix(1,0,0,1,249.11,172.256)">
                    <path d="M0,-22.751C-32.191,-22.751 -58.422,-17.902 -59.681,-11.832C-59.171,-5.285 -32.626,-0.009 0.081,0C1.059,-0.001 2.032,-0.005 2.999,-0.014C3.025,-0.015 3.051,-0.015 3.076,-0.015C3.776,-0.022 4.468,-0.034 5.161,-0.045C5.504,-0.051 5.851,-0.054 6.192,-0.061C6.418,-0.065 6.639,-0.072 6.864,-0.077C34.431,-0.695 56.332,-5.071 59.586,-10.596C59.678,-10.854 59.741,-11.113 59.741,-11.376C59.741,-17.658 32.994,-22.751 0,-22.751" style="fill:rgb(81,17,14);"/>
                </g>
            </g>
            <g>
                <clipPath id="_clip2">
                    <path d="M-0.018,249.451C-0.018,387.218 111.591,498.901 249.267,498.901C386.943,498.901 498.552,387.218 498.552,249.451C498.552,111.686 386.943,0.003 249.267,0.003C111.591,0.003 -0.018,111.686 -0.018,249.451Z" clip-rule="nonzero"/>
                </clipPath>
                <g clip-path="url(#_clip2)">
                    <g transform="matrix(1,0,0,1,245.995,677.177)">
                        <path d="M0,-522.747C60.155,-522.747 116.546,-514.139 145.943,-456.306C172.328,-391.484 162.945,-321.584 166.969,-253.077C170.424,-194.252 178.087,-126.292 150.815,-71.778C122.125,-14.427 50.435,0 -8.628,-2.113C-55.021,-3.774 -111.064,-18.919 -137.249,-61.333C-167.968,-111.093 -153.424,-185.08 -151.193,-240.448C-148.55,-306.032 -168.946,-371.816 -147.415,-435.994C-125.077,-502.57 -64.834,-517.613 0,-522.747" style="fill:rgb(233,78,45);"/>
                    </g>
                    <g transform="matrix(0,-1,-1,0,249.782,389.371)">
                        <path d="M-137.883,-137.883C-230.139,-137.883 -304.927,-76.149 -304.927,0.001C-304.927,76.15 -230.139,137.883 -137.883,137.883C-45.626,137.883 29.162,76.15 29.162,0.001C29.162,-76.149 -45.626,-137.883 -137.883,-137.883" style="fill:rgb(236,117,67);"/>
                    </g>
                </g>
            </g>
            <g transform="matrix(1,0,0,1,97.9973,160.478)">
                <path d="M0,93.398C-60.087,76.49 -15.407,0 32.844,31.462L0,93.398Z" style="fill:rgb(233,78,45);"/>
            </g>
            <g transform="matrix(1,0,0,1,364.963,213.741)">
                <path d="M0,-27.541C47.56,-60.969 90.539,14.45 35.265,33.428L0,-27.541Z" style="fill:rgb(233,78,45);"/>
            </g>
            <g transform="matrix(1,0,0,1,100.504,205.187)">
                <path d="M0,27.564C-7.927,23.367 -13.743,17.668 -8.894,8.493C-4.405,0 3.935,0.923 11.864,5.118L0,27.564Z" style="fill:white;"/>
            </g>
            <g transform="matrix(1,0,0,1,387.704,197.209)">
                <path d="M0,27.564C7.927,23.367 13.743,17.668 8.894,8.493C4.405,0 -3.935,0.923 -11.864,5.118L0,27.564Z" style="fill:white;"/>
            </g>
            <g transform="matrix(1,0,0,1,256.615,224.096)">
                <path d="M0,11.14C10.8,73.966 113.426,57.355 98.686,-6.008C85.467,-62.826 -3.59,-47.098 0,11.14" style="fill:white;"/>
            </g>
            <g transform="matrix(1,0,0,1,133.977,220.211)">
                <path d="M0,25.187C13.998,79.882 101.51,65.878 98.211,11.014C94.26,-54.695 -13.384,-42.016 0,25.187" style="fill:white;"/>
            </g>
            <g transform="matrix(0,-1,-1,0,158.114,221.7)">
                <path d="M-14.778,-14.778C-23.624,-14.778 -30.794,-8.162 -30.794,-0.001C-30.794,8.162 -23.624,14.778 -14.778,14.778C-5.932,14.778 1.239,8.162 1.239,-0.001C1.239,-8.162 -5.932,-14.778 -14.778,-14.778" style="fill:rgb(57,57,59);"/>
            </g>
            <g transform="matrix(0,-1,-1,0,164.836,236.609)">
                <path d="M-3.484,-3.484C-5.732,-3.484 -7.555,-1.924 -7.555,-0C-7.555,1.923 -5.732,3.484 -3.484,3.484C-1.236,3.484 0.587,1.923 0.587,-0C0.587,-1.924 -1.236,-3.484 -3.484,-3.484" style="fill:white;"/>
            </g>
            <g transform="matrix(0,-1,-1,0,281.93,217.958)">
                <path d="M-14.531,-14.531C-23.377,-14.531 -30.547,-8.025 -30.547,0C-30.547,8.026 -23.377,14.531 -14.531,14.531C-5.685,14.531 1.485,8.026 1.485,0C1.485,-8.025 -5.685,-14.531 -14.531,-14.531" style="fill:rgb(57,57,59);"/>
            </g>
            <g transform="matrix(0,-1,-1,0,288.539,232.678)">
                <path d="M-3.426,-3.427C-5.674,-3.427 -7.497,-1.892 -7.497,0C-7.497,1.891 -5.674,3.426 -3.426,3.426C-1.179,3.426 0.644,1.891 0.644,0C0.644,-1.892 -1.179,-3.427 -3.426,-3.427" style="fill:white;"/>
            </g>
            <g transform="matrix(1,0,0,1,272.07,337.481)">
                <path d="M0,-31.516C0.046,-21.609 1.863,-10.488 0.311,0.051C-1.78,4.83 -5.885,5.336 -9.422,7.268C-14.314,6.34 -18.429,2.457 -20.391,-3.075C-21.645,-15.105 -19.923,-26.75 -19.604,-38.784L0,-31.516Z" style="fill:rgb(172,57,36);"/>
            </g>
            <g transform="matrix(1,0,0,1,229.673,354.978)">
                <path d="M0,-50.092C-6.473,-31.128 3.61,6.793 21.173,-21.177C19.918,-33.205 21.64,-44.852 21.959,-56.885L0,-50.092Z" style="fill:rgb(172,57,36);"/>
            </g>
            <g transform="matrix(1,0,0,1,270.069,336.73)">
                <path d="M0,-26.088C0.046,-17.888 1.863,-8.681 0.311,0.042C-1.78,4 -5.885,4.417 -9.422,6.016C-14.314,5.249 -18.429,2.034 -20.391,-2.545C-21.646,-12.502 -19.923,-22.143 -19.605,-32.104L0,-26.088Z" style="fill:white;"/>
            </g>
            <g transform="matrix(1,0,0,1,227.672,351.213)">
                <path d="M0,-41.464C-6.473,-25.766 3.61,5.624 21.173,-17.529C19.918,-27.486 21.64,-37.126 21.959,-47.088L0,-41.464Z" style="fill:white;"/>
            </g>
            <g transform="matrix(1,0,0,1,228.887,319.73)">
                <path d="M0,-40.211C-12.064,-39.182 -21.927,-24.828 -15.653,-13.472C-7.347,1.57 11.194,-14.803 22.743,-13.269C36.034,-12.996 46.924,0.795 57.599,-10.776C69.471,-23.645 52.488,-36.178 39.214,-41.781L0,-40.211Z" style="fill:rgb(241,207,161);"/>
            </g>
            <g transform="matrix(1,0,0,1,227.369,270.861)">
                <path d="M0,8.029C-0.893,-12.885 38.956,-15.5 43.661,2.007C48.356,19.472 1.962,23.529 0,8.029" style="fill:rgb(57,57,59);"/>
            </g>
        </g>
    </g>
    <defs>
        <linearGradient id="_Linear1" x1="0" y1="0" x2="1" y2="0" gradientUnits="userSpaceOnUse" gradientTransform="matrix(1,-1.22541e-17,1.22541e-17,-1,0,0.00926603)"><stop offset="0" style="stop-color:rgb(29,155,176);stop-opacity:1"/><stop offset="0.72" style="stop-color:rgb(29,155,176);stop-opacity:1"/><stop offset="1" style="stop-color:rgb(40,184,199);stop-opacity:1"/></linearGradient>
    </defs>
</svg>
